<svg xmlns="http://www.w3.org/2000/svg" viewBox="0 0 24 24" fill="#000" stroke="none"><path d="M6.5,14 A4,4 0 0,1 7.5,6.3 A5.2,5.2 0 0,1 17.5,7.5 A3.6,3.6 0 0,1 17.3,14 Z"/><g transform="translate(5.9 15.7) scale(0.175)"><path d="M12,2.5 C12,2.5 18.5,11 18.5,15.5 A6.5,6.5 0 0,1 5.5,15.5 C5.5,11 12,2.5 12,2.5 Z"/></g><g transform="translate(9.9 18.0) scale(0.175)"><path d="M12,2.5 C12,2.5 18.5,11 18.5,15.5 A6.5,6.5 0 0,1 5.5,15.5 C5.5,11 12,2.5 12,2.5 Z"/></g><g transform="translate(13.9 15.7) scale(0.175)"><path d="M12,2.5 C12,2.5 18.5,11 18.5,15.5 A6.5,6.5 0 0,1 5.5,15.5 C5.5,11 12,2.5 12,2.5 Z"/></g></svg>
